<svg xmlns="http://www.w3.org/2000/svg" xmlns:xlink="http://www.w3.org/1999/xlink" version="1.1" x="0px" y="0px" viewBox="0 0 90 90" enable-background="new 0 0 90 90" xml:space="preserve"><path d="M30.139,62.26h27.779c0.598,0,1.083-0.485,1.083-1.083s-0.485-1.083-1.083-1.083H30.139c-0.598,0-1.083,0.485-1.083,1.083  S29.541,62.26,30.139,62.26z"></path><path d="M30.139,68.827h12.92c0.598,0,1.083-0.485,1.083-1.083s-0.484-1.083-1.083-1.083h-12.92c-0.598,0-1.083,0.485-1.083,1.083  S29.541,68.827,30.139,68.827z"></path><path d="M65.717,68.827h6.506c1.462,0,2.652-1.19,2.652-2.652v-3.429c0-1.462-1.19-2.652-2.652-2.652h-6.506  c-1.462,0-2.652,1.19-2.652,2.652v3.429C63.064,67.637,64.255,68.827,65.717,68.827z M65.23,62.746c0-0.269,0.218-0.486,0.486-0.486  h6.506c0.269,0,0.486,0.218,0.486,0.486v3.429c0,0.269-0.218,0.486-0.486,0.486h-6.506c-0.269,0-0.486-0.218-0.486-0.486V62.746z"></path><path d="M79.051,36.867H68.779v2.166h10.271c1.134,0,2.056,0.923,2.056,2.057v1.198H68.779v10.095c0,0.362-0.074,0.704-0.186,1.027  h12.513v17.762c0,1.134-0.922,2.057-2.056,2.057H27.833c-1.134,0-2.057-0.923-2.057-2.057V55.522h-2.165v15.651  c0,2.328,1.894,4.223,4.222,4.223h51.218c2.328,0,4.222-1.895,4.222-4.223V41.09C83.272,38.762,81.379,36.867,79.051,36.867z"></path><g><path d="M62.167,53.132H10.95c-2.328,0-4.222-1.894-4.222-4.222V18.826c0-2.328,1.894-4.222,4.222-4.222h51.217   c2.328,0,4.222,1.894,4.222,4.222V48.91C66.389,51.239,64.495,53.132,62.167,53.132z M10.95,16.771   c-1.134,0-2.057,0.922-2.057,2.056V48.91c0,1.134,0.923,2.056,2.057,2.056h51.217c1.134,0,2.056-0.922,2.056-2.056V18.826   c0-1.134-0.922-2.056-2.056-2.056H10.95z"></path></g><g><path d="M21.457,38.538h-8.008c-0.598,0-1.083-0.485-1.083-1.083s0.484-1.083,1.083-1.083h8.008c0.598,0,1.083,0.485,1.083,1.083   S22.055,38.538,21.457,38.538z"></path></g><g><path d="M34.194,38.538h-8.008c-0.598,0-1.083-0.485-1.083-1.083s0.484-1.083,1.083-1.083h8.008c0.598,0,1.083,0.485,1.083,1.083   S34.792,38.538,34.194,38.538z"></path></g><g><path d="M46.931,38.538h-8.008c-0.598,0-1.083-0.485-1.083-1.083s0.484-1.083,1.083-1.083h8.008c0.598,0,1.083,0.485,1.083,1.083   S47.528,38.538,46.931,38.538z"></path></g><g><path d="M59.668,38.538H51.66c-0.598,0-1.083-0.485-1.083-1.083s0.485-1.083,1.083-1.083h8.008c0.598,0,1.083,0.485,1.083,1.083   S60.266,38.538,59.668,38.538z"></path></g><g><path d="M34.194,45.485H13.448c-0.598,0-1.083-0.485-1.083-1.083s0.484-1.083,1.083-1.083h20.746c0.598,0,1.083,0.485,1.083,1.083   S34.792,45.485,34.194,45.485z"></path></g><g><path d="M21.715,28.714H15.21c-1.462,0-2.652-1.19-2.652-2.653v-3.429c0-1.462,1.19-2.652,2.652-2.652h6.505   c1.462,0,2.652,1.19,2.652,2.652v3.429C24.368,27.524,23.178,28.714,21.715,28.714z M15.21,22.146   c-0.269,0-0.487,0.218-0.487,0.486v3.429c0,0.269,0.219,0.487,0.487,0.487h6.505c0.269,0,0.487-0.219,0.487-0.487v-3.429   c0-0.269-0.219-0.486-0.487-0.486H15.21z"></path></g></svg>