<svg xmlns="http://www.w3.org/2000/svg" xmlns:xlink="http://www.w3.org/1999/xlink" version="1.1" x="0px" y="0px" viewBox="0 0 100 100" enable-background="new 0 0 100 100" xml:space="preserve"><path d="M94.948,31h-2.589c-27.696,0-43.114-2.807-45.827-8.025c-0.273-0.527-1.106-2.288,1.109-5.442  c2.248-3.199,1.755-5.513,0.946-6.889C43.767,2.44,11.515,5.02,4,5.739V4H1v91h3V65.279c12.563-1.248,31.418-1.71,39,1.271V78h0.171  c0.04,0.907,0.262,1.784,0.699,2.625C48.238,89.031,72.078,90,92.359,90h2.493L78.503,59.421L94.948,31z M45.187,15.808  c-1.284,1.828-1.947,3.563-2.017,5.192H43v42.514c-10.908-3.6-32.968-1.82-39-1.242V8.754c14.981-1.487,38.913-1.845,42.001,3.409  C46.198,12.498,46.796,13.517,45.187,15.808z M89.863,87.212c-26.127-0.156-40.701-2.799-43.331-7.86  c-0.12-0.23-0.347-0.668-0.378-1.352H46v-7.151v-2.177v-3.851V51V26.713c7.101,5.822,26.361,6.877,43.774,6.964L75.078,59.315  L89.863,87.212z"></path></svg>