<?xml version="1.0" encoding="UTF-8" standalone="no"?>
<svg
   version="1.1"
   viewBox="0 0 100 100"
   enable-background="new 0 0 100 100"
   xml:space="preserve"
   id="svg22"
   sodipodi:docname="logo.svg"
   inkscape:version="0.92.3 (2405546, 2018-03-11)"><metadata
     id="metadata28"><rdf:RDF><cc:Work
         rdf:about=""><dc:format>image/svg+xml</dc:format><dc:type
           rdf:resource="http://purl.org/dc/dcmitype/StillImage" /></cc:Work></rdf:RDF></metadata><defs
     id="defs26" /><sodipodi:namedview
     pagecolor="#ffffff"
     bordercolor="#666666"
     borderopacity="1"
     objecttolerance="10"
     gridtolerance="10"
     guidetolerance="10"
     inkscape:pageopacity="0"
     inkscape:pageshadow="2"
     inkscape:window-width="1366"
     inkscape:window-height="706"
     id="namedview24"
     showgrid="false"
     inkscape:zoom="2.36"
     inkscape:cx="50"
     inkscape:cy="50"
     inkscape:window-x="-8"
     inkscape:window-y="-8"
     inkscape:window-maximized="1"
     inkscape:current-layer="g20" /><g
     id="g20"><g
       id="g18"
       style="fill:#ffa64d;fill-opacity:1"><g
         id="g4"
         style="fill:#ffa64d;fill-opacity:1"><path
           d="M76.546,73.604H31.05c-1.555,0-2.822-0.65-3.479-1.785c-0.653-1.135-0.584-2.557,0.193-3.902l22.748-39.4     c0.778-1.346,1.975-2.119,3.285-2.119c1.309,0,2.506,0.773,3.284,2.119l22.747,39.4c0.777,1.348,0.848,2.77,0.193,3.902     C79.368,72.953,78.101,73.604,76.546,73.604z M31.11,69.775h45.375L53.798,30.479L31.11,69.775z"
           id="path2"
           style="fill:#ffa64d;fill-opacity:1" /></g><g
         id="g8"
         style="fill:#ffa64d;fill-opacity:1"><path
           d="M36.216,73.604H11.794c-1.557,0-2.822-0.65-3.479-1.785c-0.653-1.135-0.584-2.557,0.193-3.902l14.795-25.623     c0.775-1.348,1.975-2.119,3.283-2.119s2.506,0.771,3.283,2.119l8.002,13.857l-3.314,1.912l-7.971-13.805l-14.734,25.52h24.362     L36.216,73.604L36.216,73.604z"
           id="path6"
           style="fill:#ffa64d;fill-opacity:1" /></g><g
         id="g12"
         style="fill:#ffa64d;fill-opacity:1"><path
           d="M88.207,73.604H72.323v-3.826h15.824l-9.166-15.875l-3.797,6.576l-3.313-1.914l3.827-6.627     c0.777-1.348,1.975-2.119,3.283-2.119c1.31,0,2.508,0.771,3.283,2.119l9.227,15.979c0.777,1.348,0.848,2.77,0.193,3.902     C91.028,72.953,89.763,73.604,88.207,73.604z"
           id="path10"
           style="fill:#ffa64d;fill-opacity:1" /></g><g
         id="g16"
         style="fill:#ffa64d;fill-opacity:1"><path
           d="M47.413,54.385c-0.587,0-1.174-0.158-1.688-0.49l-5.561-3.607l2.081-3.211l5.041,3.27l4.733-5.729     c1.049-1.27,2.94-1.455,4.217-0.412l4.609,3.768l3.1-3.383l2.822,2.584l-3.588,3.918c-1.096,1.193-2.938,1.328-4.195,0.303     l-4.535-3.709l-4.607,5.576C49.235,53.994,48.327,54.385,47.413,54.385z"
           id="path14"
           style="fill:#ffa64d;fill-opacity:1" /></g></g></g></svg>