<svg xmlns="http://www.w3.org/2000/svg" xmlns:xlink="http://www.w3.org/1999/xlink" version="1.1" x="0px" y="0px" viewBox="0 0 100 100" enable-background="new 0 0 100 100" xml:space="preserve"><g><g><path fill-rule="evenodd" clip-rule="evenodd" d="M88.715,21.167c-1.572,0-2.096,0-2.096,0H15.381c0,0-0.526,0-2.095,0    C9.813,21.167,7,23.98,7,27.452c0,3.473,2.813,6.286,6.286,6.286c1.569,0,2.095,0,2.095,0h71.238c0,0,0.523,0,2.096,0    c3.47,0,6.285-2.813,6.285-6.286C95,23.98,92.185,21.167,88.715,21.167z M48.905,67.262H11.19c-2.314,0-4.19,1.875-4.19,4.19    c0,2.316,1.876,4.19,4.19,4.19h37.714c2.316,0,4.191-1.874,4.191-4.19C53.096,69.137,51.221,67.262,48.905,67.262z M11.19,54.69    h46.096c2.315,0,4.19-1.874,4.19-4.19c0-2.314-1.875-4.19-4.19-4.19H11.19C8.876,46.31,7,48.186,7,50.5    C7,52.816,8.876,54.69,11.19,54.69z M65.667,63.071c-4.629,0-8.381,3.753-8.381,8.381c0,4.629,3.752,8.381,8.381,8.381    c4.628,0,8.381-3.752,8.381-8.381C74.048,66.824,70.295,63.071,65.667,63.071z"></path></g></g></svg>